{"title":"Lady Gaga - David Bowie Tribute from The 58th Grammys 2016","uid":13690140,"size":212288854,"categoryP":"video","categoryS":"music_videos","magnet":"?xt=urn:btih:702d0dcdf94c26a764dbf5c2e88a9eca30391060&amp;dn=Lady+Gaga+-+David+Bowie+Tribute+from+The+58th+Grammys+2016&amp;tr=udp%3A%2F%2Ftracker.leechers-paradise.org%3A6969&amp;tr=udp%3A%2F%2Fzer0day.ch%3A1337&amp;tr=udp%3A%2F%2Fopen.demonii.com%3A1337&amp;tr=udp%3A%2F%2Ftracker.coppersurfer.tk%3A6969&amp;tr=udp%3A%2F%2Fexodus.desync.com%3A6969","seeders":2,"leechers":0,"uploader":"MeRaDil","files":1,"time":1456600289,"description":"LADY GAGA DAVID BOWIE TRIBUTE AT THE GRAMMYS 2016\r\n\r\n \nhttp://gifyu.com/images/GaGa.png\r\n \nhttp://gifyu.com/images/GaGa-1.png\r\n \nhttp://gifyu.com/images/GaGa-2.png\r\n\r\n\r\nMEDIA INFO\r\nGeneral\r\nLady Gaga - David Bowie Tribute from The 58th Grammys\r\nFormat                                   : MPEG-4\r\nFormat profile                           : Base Media\r\nCodec ID                                 : isom (isom/iso2/avc1/mp41)\r\nFile size                                : 202 MiB\r\nDuration                                 : 6mn 24s\r\nOverall bit rate                         : 4 417 Kbps\r\nMusicVid name                            : David Bowie Tribute from Grammys\r\nPerformer                                : Lady Gaga\r\nGenre                                    : Pop\r\nContentType                              : Music Video\r\nRecorded date                            : 2016\r\nMake                                     : MeRaDil\r\nCover                                    : Yes\r\nComment                                  : Live performance from the 58th Grammys.\r\nRelease time                             : USA - february 15 - 2016\r\n\r\nVideo\r\nID                                       : 1\r\nFormat                                   : AVC\r\nFormat/Info                              : Advanced Video Codec\r\nFormat profile                           :   \r\nFormat settings, CABAC                   : Yes\r\nFormat settings, ReFrames                : 2 frames\r\nCodec ID                                 : avc1\r\nCodec ID/Info                            : Advanced Video Coding\r\nDuration                                 : 6mn 24s\r\nBit rate                                 : 4 142 Kbps\r\nWidth                                    : 1 920 pixels\r\nHeight                                   : 1 080 pixels\r\nDisplay aspect ratio                     : 16:9\r\nFrame rate mode                          : Variable\r\nFrame rate                               : 23.976 (24000/1001) fps\r\nStream size                              : 190 MiB (94%)\r\n\r\nAudio\r\nID                                       : 2\r\nFormat                                   : AAC\r\nFormat/Info                              : Advanced Audio Codec\r\nFormat profile                           : LC\r\nCodec ID                                 : 40\r\nDuration                                 : 6mn 24s\r\nBit rate mode                            : Constant\r\nBit rate                                 : 256 Kbps\r\nChannel(s)                               : 2 channels\r\nChannel positions                        : Front: L R\r\nSampling rate                            : 44.1 KHz\r\nFrame rate                               : 43.066 fps (1024 spf)\r\nCompression mode                         : Lossy\r\nStream size                              : 11.7 MiB (6%)\r\nDefault                                  : Yes\r\nAlternate group                          : 1","torrent":{"xt":"urn:btih:702d0dcdf94c26a764dbf5c2e88a9eca30391060","amp;dn":"Lady+Gaga+-+David+Bowie+Tribute+from+The+58th+Grammys+2016","amp;tr":["udp%3A%2F%2Ftracker.leechers-paradise.org%3A6969","udp%3A%2F%2Fzer0day.ch%3A1337","udp%3A%2F%2Fopen.demonii.com%3A1337","udp%3A%2F%2Ftracker.coppersurfer.tk%3A6969","udp%3A%2F%2Fexodus.desync.com%3A6969"],"infoHash":"702d0dcdf94c26a764dbf5c2e88a9eca30391060","infoHashBuffer":{"type":"Buffer","data":[112,45,13,205,249,76,38,167,100,219,245,194,232,138,158,202,48,57,16,96]},"announce":[],"urlList":[]}}